<?xml version="1.0" encoding="utf-8"?>
<!-- Generator: Adobe Illustrator 16.0.0, SVG Export Plug-In . SVG Version: 6.00 Build 0)  -->
<!DOCTYPE svg PUBLIC "-//W3C//DTD SVG 1.1//EN" "http://www.w3.org/Graphics/SVG/1.1/DTD/svg11.dtd">
<svg version="1.1" id="Layer_1" xmlns="http://www.w3.org/2000/svg" xmlns:xlink="http://www.w3.org/1999/xlink" x="0px" y="0px"
	 width="1609px" height="318px" viewBox="0 0 1609 318" enable-background="new 0 0 1609 318" xml:space="preserve">
<g>
	<path d="M400.464,248.238c0-27.674,20.924-46.573,47.923-46.573c19.845,0,31.319,10.8,37.664,22.004l-16.47,8.1
		c-3.78-7.289-11.88-13.094-21.194-13.094c-16.334,0-28.214,12.554-28.214,29.563c0,17.009,11.88,29.563,28.214,29.563
		c9.314,0,17.414-5.67,21.194-13.094l16.47,7.964c-6.48,11.205-17.819,22.14-37.664,22.14
		C421.388,294.812,400.464,275.912,400.464,248.238z"/>
	<path d="M497.123,293.191V203.15h17.145v90.041H497.123z"/>
	<path d="M527.093,260.522c0-18.494,12.959-34.153,34.423-34.153c21.6,0,34.559,15.659,34.559,34.153
		c0,18.63-12.959,34.289-34.559,34.289C540.052,294.812,527.093,279.152,527.093,260.522z M578.255,260.522
		c0-10.124-6.074-18.899-16.739-18.899c-10.664,0-16.604,8.775-16.604,18.899c0,10.26,5.94,19.034,16.604,19.034
		C572.181,279.557,578.255,270.782,578.255,260.522z"/>
	<path d="M652.773,293.191v-8.234c-4.455,4.994-12.284,9.854-22.949,9.854c-14.31,0-21.059-7.83-21.059-20.52v-46.303h17.145v39.553
		c0,9.045,4.725,12.015,12.014,12.015c6.615,0,11.88-3.645,14.85-7.425v-44.143h17.145v65.202H652.773z"/>
	<path d="M731.748,293.191v-8.37c-5.13,6.48-12.285,9.99-20.114,9.99c-16.47,0-28.889-12.42-28.889-34.153
		c0-21.33,12.284-34.289,28.889-34.289c7.694,0,14.984,3.375,20.114,9.989V203.15h17.279v90.041H731.748z M731.748,272.132v-23.084
		c-2.835-4.319-9.045-7.425-14.85-7.425c-9.72,0-16.47,7.695-16.47,19.035c0,11.204,6.75,18.898,16.47,18.898
		C722.703,279.557,728.913,276.452,731.748,272.132z"/>
	<path d="M863.102,293.191l-42.928-58.723v58.723h-19.17V203.15h19.71l41.713,56.562V203.15h19.169v90.041H863.102z"/>
	<path d="M938.161,293.191v-6.75c-4.455,5.265-12.149,8.37-20.654,8.37c-10.395,0-22.68-7.02-22.68-21.6
		c0-15.254,12.285-21.059,22.68-21.059c8.64,0,16.334,2.835,20.654,7.965v-8.775c0-6.614-5.67-10.935-14.31-10.935
		c-7.02,0-13.5,2.565-19.034,7.695l-6.479-11.475c7.964-7.02,18.224-10.26,28.483-10.26c14.85,0,28.484,5.939,28.484,24.704v42.118
		H938.161z M938.161,277.532v-8.1c-2.835-3.78-8.235-5.67-13.77-5.67c-6.75,0-12.285,3.51-12.285,9.854
		c0,6.075,5.535,9.585,12.285,9.585C929.926,283.202,935.326,281.312,938.161,277.532z"/>
	<path d="M975.693,276.992v-34.019h-10.8v-14.984h10.8V210.17h17.279v17.819h13.229v14.984h-13.229v29.429
		c0,4.05,2.159,7.154,5.939,7.154c2.564,0,4.995-0.944,5.939-1.89l3.646,12.96c-2.565,2.295-7.155,4.185-14.31,4.185
		C982.173,294.812,975.693,288.602,975.693,276.992z"/>
	<path d="M1016.192,210.71c0-5.67,4.725-10.125,10.26-10.125c5.669,0,10.259,4.455,10.259,10.125s-4.59,10.26-10.259,10.26
		C1020.917,220.97,1016.192,216.38,1016.192,210.71z M1017.947,293.191v-65.202h17.145v65.202H1017.947z"/>
	<path d="M1068.976,293.191l-26.188-65.202h18.358l17.01,45.358l17.01-45.358h18.494l-26.189,65.202H1068.976z"/>
	<path d="M1117.169,260.522c0-18.899,13.905-34.153,33.749-34.153c19.439,0,32.669,14.579,32.669,35.908v3.78h-48.463
		c1.08,8.234,7.694,15.119,18.764,15.119c5.535,0,13.229-2.43,17.414-6.479l7.561,11.069c-6.48,5.939-16.739,9.045-26.864,9.045
		C1132.154,294.812,1117.169,281.447,1117.169,260.522z M1150.918,240.004c-10.664,0-15.254,7.964-16.064,14.444h32.129
		C1166.577,248.238,1162.258,240.004,1150.918,240.004z"/>
	<path d="M1222.873,286.037l8.37-14.715c3.51,3.375,8.1,6.479,14.31,6.479c8.505,0,14.039-5.67,14.039-14.444V203.15h19.169v60.478
		c0,21.329-13.229,31.184-31.724,31.184C1237.993,294.812,1229.354,292.382,1222.873,286.037z"/>
	<path d="M1335.325,293.191v-6.75c-4.455,5.265-12.149,8.37-20.654,8.37c-10.395,0-22.68-7.02-22.68-21.6
		c0-15.254,12.285-21.059,22.68-21.059c8.64,0,16.334,2.835,20.654,7.965v-8.775c0-6.614-5.67-10.935-14.31-10.935
		c-7.02,0-13.5,2.565-19.034,7.695l-6.479-11.475c7.964-7.02,18.224-10.26,28.483-10.26c14.85,0,28.484,5.939,28.484,24.704v42.118
		H1335.325z M1335.325,277.532v-8.1c-2.835-3.78-8.235-5.67-13.77-5.67c-6.75,0-12.285,3.51-12.285,9.854
		c0,6.075,5.535,9.585,12.285,9.585C1327.09,283.202,1332.49,281.312,1335.325,277.532z"/>
	<path d="M1386.356,293.191l-26.188-65.202h18.358l17.01,45.358l17.01-45.358h18.494l-26.189,65.202H1386.356z"/>
	<path d="M1477.884,293.191v-6.75c-4.455,5.265-12.149,8.37-20.654,8.37c-10.395,0-22.68-7.02-22.68-21.6
		c0-15.254,12.285-21.059,22.68-21.059c8.64,0,16.334,2.835,20.654,7.965v-8.775c0-6.614-5.67-10.935-14.31-10.935
		c-7.02,0-13.5,2.565-19.034,7.695l-6.479-11.475c7.964-7.02,18.224-10.26,28.483-10.26c14.85,0,28.484,5.939,28.484,24.704v42.118
		H1477.884z M1477.884,277.532v-8.1c-2.835-3.78-8.235-5.67-13.77-5.67c-6.75,0-12.285,3.51-12.285,9.854
		c0,6.075,5.535,9.585,12.285,9.585C1469.648,283.202,1475.049,281.312,1477.884,277.532z"/>
</g>
<g enable-background="new    ">
	<path d="M408.227,135.338V29.033h42.713c21.356,0,33.311,14.662,33.311,32.034s-12.271,32.035-33.311,32.035h-29.484v42.235
		H408.227L408.227,135.338z M470.544,61.067c0-11.953-8.606-20.24-21.198-20.24h-27.891v40.481h27.891
		C461.938,81.309,470.544,73.021,470.544,61.067z"/>
	<path d="M499.227,39.393c0-4.463,3.666-8.129,7.969-8.129c4.463,0,8.128,3.666,8.128,8.129c0,4.462-3.666,7.969-8.128,7.969
		C502.893,47.361,499.227,43.854,499.227,39.393z M501.298,135.338V58.358h11.954v76.979H501.298z"/>
	<path d="M557.715,135.338L525.68,58.358h12.91l25.66,63.113l25.5-63.113h13.069l-32.035,76.979H557.715z"/>
	<path d="M610.783,96.769c0-22.313,14.663-40.323,38.091-40.323s38.091,18.01,38.091,40.323c0,22.312-14.663,40.48-38.091,40.48
		S610.783,119.081,610.783,96.769z M674.375,96.769c0-15.619-9.084-29.646-25.5-29.646s-25.66,14.025-25.66,29.646
		c0,15.778,9.244,29.804,25.66,29.804S674.375,112.547,674.375,96.769z"/>
	<path d="M708.795,119.24V68.878h-12.75v-10.52h12.75V37.32h11.953v21.038h15.619v10.52h-15.619v47.812
		c0,5.738,2.55,9.882,7.81,9.882c3.348,0,6.535-1.435,8.128-3.188l3.506,8.925c-3.027,2.869-7.331,4.939-14.344,4.939
		C714.533,137.249,708.795,130.716,708.795,119.24z"/>
	<path d="M801.39,135.338v-8.767c-6.375,7.014-15.141,10.678-25.5,10.678c-13.068,0-26.935-8.766-26.935-25.5
		c0-17.213,13.866-25.341,26.935-25.341c10.52,0,19.285,3.348,25.5,10.52V83.062c0-10.359-8.288-16.256-19.443-16.256
		c-9.244,0-16.735,3.347-23.588,10.678l-5.578-8.287c8.288-8.605,18.169-12.751,30.76-12.751c16.256,0,29.804,7.332,29.804,25.979
		v52.913H801.39L801.39,135.338z M801.39,119.081v-14.503c-4.622-6.375-12.75-9.562-21.196-9.562
		c-11.156,0-18.967,7.013-18.967,16.894c0,9.724,7.811,16.734,18.967,16.734C788.64,128.644,796.768,125.456,801.39,119.081z"/>
	<path d="M837.246,135.338V29.033h11.953v106.306L837.246,135.338L837.246,135.338z"/>
	<path d="M995.98,135.338l-23.43-85.745l-23.429,85.745h-14.344L904.497,29.032h14.662l23.588,88.613l24.385-88.613h10.997
		l24.386,88.613l23.429-88.613h14.662l-30.281,106.306H995.98z"/>
	<path d="M1044.107,96.769c0-22.313,14.662-40.323,38.092-40.323c23.428,0,38.091,18.01,38.091,40.323
		c0,22.312-14.663,40.48-38.091,40.48C1058.77,137.249,1044.107,119.081,1044.107,96.769z M1107.699,96.769
		c0-15.619-9.084-29.646-25.5-29.646s-25.66,14.025-25.66,29.646c0,15.778,9.244,29.804,25.66,29.804
		S1107.699,112.547,1107.699,96.769z"/>
	<path d="M1139.729,135.338V58.358h11.953V70.79c6.218-8.129,15.143-14.024,25.66-14.024v12.271
		c-1.434-0.318-2.869-0.479-4.781-0.479c-7.332,0-17.371,6.057-20.879,12.271v54.508H1139.729z"/>
	<path d="M1244.754,135.338l-27.73-34.585l-12.75,12.591v21.994h-11.954V29.033h11.954v70.285l40.48-40.96h15.143l-34.106,34.903
		l34.266,42.076H1244.754L1244.754,135.338z"/>
	<path d="M1267.541,125.138l6.215-8.606c5.102,5.897,14.822,10.997,25.342,10.997c11.794,0,18.169-5.578,18.169-13.229
		c0-18.647-47.652-7.172-47.652-35.7c0-11.954,10.358-22.154,28.688-22.154c13.068,0,22.312,4.941,28.529,11.157l-5.579,8.287
		c-4.622-5.578-13.068-9.722-22.95-9.722c-10.52,0-17.054,5.26-17.054,12.111c0,16.896,47.654,5.738,47.654,35.701
		c0,12.909-10.36,23.27-30.282,23.27C1286.029,137.249,1275.35,133.426,1267.541,125.138z"/>
	<path d="M1400.459,135.338V84.655c0-13.547-7.014-17.531-17.373-17.531c-9.244,0-18.17,5.737-22.791,11.953v56.262h-11.953V29.033
		h11.953v40.481c5.418-6.375,15.938-13.069,27.572-13.069c16.098,0,24.545,7.811,24.545,24.545v54.349L1400.459,135.338
		L1400.459,135.338z"/>
	<path d="M1431.85,96.769c0-22.313,14.662-40.323,38.092-40.323c23.429,0,38.093,18.01,38.093,40.323
		c0,22.312-14.664,40.48-38.093,40.48C1446.512,137.249,1431.85,119.081,1431.85,96.769z M1495.441,96.769
		c0-15.619-9.084-29.646-25.5-29.646s-25.66,14.025-25.66,29.646c0,15.778,9.244,29.804,25.66,29.804
		S1495.441,112.547,1495.441,96.769z"/>
	<path d="M1539.424,123.703v40.96h-11.953V58.358h11.953v11.477c5.58-7.811,15.143-13.39,25.98-13.39
		c20.24,0,34.266,15.301,34.266,40.323c0,24.863-14.025,40.48-34.266,40.48C1554.885,137.249,1545.641,132.31,1539.424,123.703z
		 M1587.078,96.769c0-17.054-9.244-29.646-24.703-29.646c-9.402,0-18.807,5.578-22.951,12.272v34.744
		c4.145,6.693,13.549,12.432,22.951,12.432C1577.834,126.572,1587.078,113.822,1587.078,96.769z"/>
</g>
<path fill="#00AE9E" d="M218.52,254.41c2.935-8.616-2.43-16.367-10.408-24.481c-39.37-40.286-79.978-79.289-121.824-117.01
	c-5.519-6.029-13.89-8.562-21.825-6.604C38.511,111.68,9.122,83.298,12.285,56.934c0.642-5.228,2.981-5.961,7.199-3.209
	c6.098,3.943,12.242,7.84,18.34,11.554c12.288,7.382,21.55,4.998,29.665-7.658c8.116-12.652,7.382-23.933-3.943-32.095
	c-5.501-3.989-11.371-7.519-17.148-11.095c-6.694-4.357-5.181-7.612,1.513-9.629c18.203-5.456,35.58-5.597,51.536,7.243
	C114.44,24.058,120.4,38.96,115.815,57.896c-1.67,6.241,0.379,12.887,5.273,17.104c41.953,43.557,85.832,85.004,130.49,125.723
	c4.257,4.035,10.394,5.393,15.957,3.529c31.453-6.283,52.086,20.127,54.378,47.042c0.55,6.418-1.65,8.667-7.704,4.585
	c-6.051-4.079-12.241-7.843-18.339-11.512c-11.279-6.691-19.302-4.584-27.83,6.696c-8.528,11.278-8.712,24.162,0.503,31.729
	c6.158,4.647,12.573,8.949,19.212,12.884c6.556,4.264,5.777,6.922-1.284,9.719C252.128,318.785,211.688,292.923,218.52,254.41z"/>
<path fill="#0066AC" d="M170.652,241.893c7.779-0.021,15.51-1.226,22.925-3.576c9.904-2.338,16.689,2.615,16.139,12.841
	c-0.412,8.113,1.972,20.447-0.916,23.521c-10.454,11.096-6.42,25.95-13.068,36.68c-4.86,7.84-16.23,6.465-25.217,6.604
	c-25.494,0.412-28.474-2.107-30.812-26.775c0.05-4.619-2.901-8.738-7.291-10.178c-4.753-1.32-9.361-3.12-13.755-5.365
	c-10.82-6.924-19.715-6.648-27.509,4.585c-5.548,7.657-12.976,7.795-20.129,2.017c-6.085-4.707-11.789-9.89-17.056-15.495
	c-13.756-15.223-13.756-18.343,0.503-33.607c4.741-3.812,5.883-10.567,2.66-15.729c-2.621-4.276-4.614-8.909-5.914-13.757
	c-2.477-11.875-9.17-16.688-21.137-15.176c-10.591,1.33-16.14-4.035-16.827-14.626c-0.88-6.271-1.31-12.601-1.284-18.938
	c2.018-25.125,5.594-28.428,24.622-25.996c3.622,0.458,8.758,0,9.628-3.484c2.568-10.408,10.546-8.712,17.837-9.721
	c17.376-2.387,28.701,9.17,24.988,26.363C77.897,192.651,117.649,241.893,170.652,241.893z"/>
<path fill="#008774" d="M327.506,159.821c0.188,6.455-0.601,12.9-2.339,19.119c-1.008,3.714-2.521,7.842-6.235,8.162
	c-19.211,1.649-37.597,10.043-56.992,8.116c-7.216-0.095-12.99-6.021-12.896-13.239c0.016-1.278,0.222-2.549,0.609-3.771
	c12.562-64.694-38.515-114.26-102.522-99.083c-9.491,2.246-12.15-3.257-16.46-7.749c-8.907-9.633-8.32-24.657,1.31-33.563
	c0.827-0.763,1.707-1.469,2.633-2.107c6.739-4.081,5.501-10.089,4.998-15.637c-1.103-12.652,4.585-18.752,16.827-19.578
	c6.738-0.812,13.537-1.014,20.312-0.596c19.165,2.153,24.896,4.355,22.557,23.658c-1.245,6.285,2.84,12.389,9.124,13.634
	c0.244,0.048,0.488,0.089,0.734,0.123c3.98,0.962,7.797,2.506,11.325,4.584c10.729,6.831,19.624,6.831,27.739-4.493
	c6.052-8.3,13.755-7.337,21.32-1.331c5.325,4.216,10.335,8.814,14.993,13.756c14.443,15.863,14.582,19.028,0.414,34.708
	c-4.545,4.02-5.585,10.703-2.476,15.911c3.145,6.503,5.886,13.195,8.207,20.036c1.316,4.928,5.723,8.398,10.819,8.528
	C326.085,131.898,327.552,133.732,327.506,159.821z"/>
</svg>
